<mxfile host="app.diagrams.net" modified="2023-10-26T02:05:10.316Z" agent="Mozilla/5.0 (X11; Linux x86_64) AppleWebKit/537.36 (KHTML, like Gecko) Chrome/116.0.0.0 YaBrowser/23.9.0.0 Safari/537.36" etag="8zqfeztmUv0G1WHMuwQv" version="22.0.8" type="github">
  <diagram name="Страница — 1" id="CmyEx2-zxZ6OVXl3N_ZN">
    <mxGraphModel dx="629" dy="802" grid="1" gridSize="10" guides="1" tooltips="1" connect="1" arrows="1" fold="1" page="1" pageScale="1" pageWidth="827" pageHeight="1169" math="0" shadow="0">
      <root>
        <mxCell id="0" />
        <mxCell id="1" parent="0" />
        <mxCell id="TlDxSS4YfpY0NpfLTLBp-15" value="salon:BeautySalon" style="rounded=0;whiteSpace=wrap;html=1;" parent="1" vertex="1">
          <mxGeometry x="100" y="86" width="130" height="60" as="geometry" />
        </mxCell>
        <mxCell id="TlDxSS4YfpY0NpfLTLBp-16" value="client:Client" style="rounded=0;whiteSpace=wrap;html=1;" parent="1" vertex="1">
          <mxGeometry x="100" y="196" width="130" height="60" as="geometry" />
        </mxCell>
        <mxCell id="TlDxSS4YfpY0NpfLTLBp-17" value="ord:Order" style="rounded=0;whiteSpace=wrap;html=1;" parent="1" vertex="1">
          <mxGeometry x="100" y="306" width="130" height="60" as="geometry" />
        </mxCell>
        <mxCell id="TlDxSS4YfpY0NpfLTLBp-18" value="" style="endArrow=none;html=1;rounded=0;entryX=0.5;entryY=1;entryDx=0;entryDy=0;exitX=0.5;exitY=0;exitDx=0;exitDy=0;" parent="1" source="TlDxSS4YfpY0NpfLTLBp-16" target="TlDxSS4YfpY0NpfLTLBp-15" edge="1">
          <mxGeometry width="50" height="50" relative="1" as="geometry">
            <mxPoint x="420" y="336" as="sourcePoint" />
            <mxPoint x="470" y="286" as="targetPoint" />
          </mxGeometry>
        </mxCell>
        <mxCell id="TlDxSS4YfpY0NpfLTLBp-19" value="" style="endArrow=none;html=1;rounded=0;entryX=0.5;entryY=1;entryDx=0;entryDy=0;" parent="1" source="TlDxSS4YfpY0NpfLTLBp-17" target="TlDxSS4YfpY0NpfLTLBp-16" edge="1">
          <mxGeometry width="50" height="50" relative="1" as="geometry">
            <mxPoint x="420" y="336" as="sourcePoint" />
            <mxPoint x="470" y="286" as="targetPoint" />
          </mxGeometry>
        </mxCell>
        <mxCell id="TlDxSS4YfpY0NpfLTLBp-20" value="" style="endArrow=block;endFill=1;html=1;edgeStyle=orthogonalEdgeStyle;align=left;verticalAlign=top;rounded=0;" parent="1" edge="1">
          <mxGeometry x="-1" relative="1" as="geometry">
            <mxPoint x="180" y="156" as="sourcePoint" />
            <mxPoint x="180" y="186" as="targetPoint" />
          </mxGeometry>
        </mxCell>
        <mxCell id="TlDxSS4YfpY0NpfLTLBp-21" value="" style="endArrow=block;endFill=1;html=1;edgeStyle=orthogonalEdgeStyle;align=left;verticalAlign=top;rounded=0;" parent="1" edge="1">
          <mxGeometry x="-1" relative="1" as="geometry">
            <mxPoint x="180" y="266" as="sourcePoint" />
            <mxPoint x="180" y="296" as="targetPoint" />
          </mxGeometry>
        </mxCell>
        <mxCell id="TlDxSS4YfpY0NpfLTLBp-22" value="1: addNewClientWithOrder(&lt;u style=&quot;border-color: var(--border-color); text-align: left;&quot;&gt;clients: Client[1..*]&lt;/u&gt;)" style="text;html=1;strokeColor=none;fillColor=none;align=center;verticalAlign=middle;whiteSpace=wrap;rounded=0;" parent="1" vertex="1">
          <mxGeometry x="186" y="156" width="254" height="30" as="geometry" />
        </mxCell>
        <mxCell id="TlDxSS4YfpY0NpfLTLBp-23" value="2: addNewOrder(orderLog:Order[1..*])&lt;br&gt;" style="text;html=1;strokeColor=none;fillColor=none;align=center;verticalAlign=middle;whiteSpace=wrap;rounded=0;" parent="1" vertex="1">
          <mxGeometry x="150" y="266" width="284" height="30" as="geometry" />
        </mxCell>
        <mxCell id="TlDxSS4YfpY0NpfLTLBp-24" value="" style="endArrow=none;html=1;rounded=0;entryX=0.5;entryY=1;entryDx=0;entryDy=0;exitX=1;exitY=0.5;exitDx=0;exitDy=0;" parent="1" source="TlDxSS4YfpY0NpfLTLBp-17" target="TlDxSS4YfpY0NpfLTLBp-17" edge="1">
          <mxGeometry width="50" height="50" relative="1" as="geometry">
            <mxPoint x="230" y="436" as="sourcePoint" />
            <mxPoint x="170" y="476" as="targetPoint" />
            <Array as="points">
              <mxPoint x="260" y="336" />
              <mxPoint x="260" y="406" />
              <mxPoint x="230" y="406" />
              <mxPoint x="165" y="406" />
            </Array>
          </mxGeometry>
        </mxCell>
        <mxCell id="TlDxSS4YfpY0NpfLTLBp-25" value="" style="endArrow=block;endFill=1;html=1;edgeStyle=orthogonalEdgeStyle;align=left;verticalAlign=top;rounded=0;" parent="1" edge="1">
          <mxGeometry x="-1" relative="1" as="geometry">
            <mxPoint x="190" y="416" as="sourcePoint" />
            <mxPoint x="230" y="416" as="targetPoint" />
          </mxGeometry>
        </mxCell>
        <mxCell id="TlDxSS4YfpY0NpfLTLBp-26" value="&lt;span style=&quot;color: rgb(0, 0, 0); font-family: Helvetica; font-size: 12px; font-style: normal; font-variant-ligatures: normal; font-variant-caps: normal; font-weight: 400; letter-spacing: normal; orphans: 2; text-align: center; text-indent: 0px; text-transform: none; widows: 2; word-spacing: 0px; -webkit-text-stroke-width: 0px; background-color: rgb(251, 251, 251); text-decoration-thickness: initial; text-decoration-style: initial; text-decoration-color: initial; float: none; display: inline !important;&quot;&gt;&lt;span&gt;&amp;nbsp;&lt;/span&gt;[isReady = false]&lt;/span&gt;" style="text;whiteSpace=wrap;html=1;" parent="1" vertex="1">
          <mxGeometry x="160" y="416" width="150" height="40" as="geometry" />
        </mxCell>
        <mxCell id="TlDxSS4YfpY0NpfLTLBp-27" value="&lt;span style=&quot;color: rgb(0, 0, 0); font-family: Helvetica; font-size: 11px; font-style: normal; font-variant-ligatures: normal; font-variant-caps: normal; font-weight: 400; letter-spacing: normal; orphans: 2; text-align: left; text-indent: 0px; text-transform: none; widows: 2; word-spacing: 0px; -webkit-text-stroke-width: 0px; background-color: rgb(255, 255, 255); text-decoration-thickness: initial; text-decoration-style: initial; text-decoration-color: initial; float: none; display: inline !important;&quot;&gt;3: ord.change(s:Service)&lt;/span&gt;" style="text;whiteSpace=wrap;html=1;" parent="1" vertex="1">
          <mxGeometry x="150" y="436" width="150" height="40" as="geometry" />
        </mxCell>
        <mxCell id="TlDxSS4YfpY0NpfLTLBp-28" value="sd BeautySalon.&lt;span style=&quot;border-color: var(--border-color); text-align: left;&quot;&gt;addNewClientWithOrder&lt;/span&gt;()" style="shape=umlFrame;whiteSpace=wrap;html=1;pointerEvents=0;width=260;height=30;" parent="1" vertex="1">
          <mxGeometry x="40" y="30" width="410" height="450" as="geometry" />
        </mxCell>
      </root>
    </mxGraphModel>
  </diagram>
</mxfile>
